<svg xmlns="http://www.w3.org/2000/svg" width="708" height="577" fill="none" viewBox="0 0 708 577"><g clip-path="url(#a)" opacity=".1"><path fill="#000" d="M412.402 38.649c-32.69 11.903-64.375 28.5-93.88 49.287a2.14 2.14 0 0 0-.67 1.676c2.514 8.55 6.202 19.279 9.388 27.159a381.435 381.435 0 0 0-80.469 80.468c-8.047-3.352-18.609-6.873-27.326-9.22-.503-.168-1.174.168-1.676.671-20.788 29.505-37.217 61.022-49.288 93.88-.167.168-.167.503-.167.838 22.632 113.83 76.445 192.79 148.364 252.303.335.335.838.503 1.341.335 52.305-8.046 94.719-23.637 132.271-43.419.67-.335 1.006-1.006.838-1.509-2.515-15.926-6.203-31.684-11.232-47.108-.335-1.006-1.341-1.341-2.179-.838-13.244 5.868-26.656 10.562-40.57 14.417-1.006.336-2.012-.67-2.012-1.676.503-3.185.838-6.538 1.341-9.723 0-.671.503-1.174 1.006-1.341 83.989-31.35 146.185-93.545 176.864-176.864.167-.503.67-1.006 1.341-1.006 3.353-.335 6.538-.838 9.891-1.173 1.173-.168 2.179.838 1.676 2.011-3.52 13.915-8.55 27.326-14.417 40.57-.503.838.168 1.844.838 2.179 15.591 4.862 31.349 8.55 47.108 11.232.671-.335 1.341-.67 1.676-1.341 19.95-37.719 35.541-80.133 43.588-132.438.167-.503 0-1.006-.336-1.341C597.145 103.359 511.647 57.09 413.408 38.314c-.335 0-.67 0-1.006.335Zm-19.614 340.819c-17.267 17.267-47.611 15.758-67.225-3.856-19.614-19.614-21.458-49.623-3.856-67.225 17.771-17.77 47.946-15.759 67.225 3.856 19.615 19.614 21.459 49.622 3.856 67.225ZM509.635 262.62c-17.267 17.268-47.61 15.759-67.224-3.855-19.615-19.615-21.459-49.623-3.856-67.225 17.77-17.771 47.946-15.759 67.225 3.855 19.614 19.615 21.626 49.455 3.855 67.225Z"/></g><defs><clipPath id="a"><path fill="#fff" d="M0 272.344 402.344-130l402.344 402.344-402.344 402.344z"/></clipPath></defs></svg>