<svg xmlns="http://www.w3.org/2000/svg" width="167" height="34" fill="none" viewBox="0 0 167 34"><g clip-path="url(#a)"><path fill="#fff" d="M26.592.22a33.367 33.367 0 0 1 8.56 2.738c4.696 7.138 7.029 15.189 6.167 24.474-3.592 2.735-7.078 4.394-10.504 5.48a26.546 26.546 0 0 1-2.249-3.77 21.888 21.888 0 0 0 3.547-1.757 21.364 21.364 0 0 1-.868-.7c-6.745 3.251-14.163 3.251-20.99 0-.28.242-.57.476-.868.7a21.95 21.95 0 0 0 3.541 1.754 26.667 26.667 0 0 1-2.248 3.769C7.256 31.822 3.774 30.163.18 27.432c-.734-8.01.734-16.135 6.151-24.467A33.256 33.256 0 0 1 14.9.22c.372.679.813 1.592 1.11 2.318a30.894 30.894 0 0 1 9.486 0c.327-.79.693-1.564 1.097-2.318Zm82.33 10.457c2.284 0 4.18.498 5.688 1.496v4.346a7.005 7.005 0 0 0-1.861-.926 7.098 7.098 0 0 0-2.274-.357c-1.416 0-2.523.269-3.322.808-.8.54-1.201 1.242-1.201 2.114 0 .854.388 1.554 1.165 2.103.777.546 1.902.821 3.381.821.76 0 1.511-.115 2.251-.343.738-.23 1.375-.512 1.906-.844v4.203c-1.674 1.045-3.615 1.567-5.825 1.567-1.86-.006-3.446-.339-4.755-1.004-1.308-.665-2.297-1.567-2.956-2.707-.659-1.14-.992-2.422-.992-3.847 0-1.425.342-2.7 1.027-3.824.686-1.123 1.691-2.005 3.016-2.646s2.908-.96 4.752-.96Zm-17.157-.003c1.28 0 2.45.142 3.519.427 1.066.285 1.947.648 2.65 1.092v3.73c-.72-.445-1.542-.795-2.48-1.06a10.705 10.705 0 0 0-2.893-.39c-1.432 0-2.147.255-2.147.76 0 .238.111.414.333.533.222.119.63.241 1.22.37l2.284.427c1.492.268 2.605.74 3.336 1.412.731.671 1.096 1.665 1.096 2.982 0 1.442-.603 2.585-1.814 3.433-1.21.848-2.927 1.272-5.153 1.272a14.739 14.739 0 0 1-3.815-.502c-1.233-.332-2.346-.814-3.335-1.449V19.77c.747.6 1.75 1.095 3.006 1.486 1.256.386 2.47.58 3.645.58.548 0 .963-.075 1.243-.224.281-.15.422-.33.422-.536a.82.82 0 0 0-.23-.594c-.153-.16-.45-.292-.89-.404l-2.741-.641c-1.57-.38-2.683-.906-3.345-1.58-.663-.673-.993-1.555-.993-2.647 0-.92.288-1.717.869-2.399.577-.681 1.4-1.207 2.467-1.577 1.067-.373 2.313-.56 3.746-.56Zm74.24-2.589v17.099h-5.597v-3.11c-.473 1.17-1.191 2.062-2.157 2.672-.966.608-2.161.913-3.577.913-1.266 0-2.369-.319-3.312-.96-.943-.641-1.671-1.52-2.183-2.636-.509-1.116-.767-2.378-.767-3.79-.017-1.455.254-2.761.812-3.918.555-1.157 1.341-2.06 2.353-2.707 1.012-.648 2.167-.974 3.463-.974 2.62 0 4.392 1.163 5.32 3.486l.048.123V8.085h5.597Zm-41.024 2.585c1.811 0 3.374.316 4.683.95 1.308.635 2.307 1.503 2.992 2.613.686 1.109 1.028 2.381 1.028 3.823 0 1.425-.342 2.714-1.028 3.87-.685 1.158-1.687 2.067-3.005 2.732-1.319.665-2.875.997-4.673.997-1.799 0-3.355-.329-4.67-.994-1.319-.665-2.324-1.574-3.016-2.73-.691-1.158-1.041-2.447-1.041-3.872 0-1.424.346-2.697 1.041-3.813s1.694-1.991 3.006-2.626c1.308-.634 2.872-.95 4.683-.95Zm-42.914 3.895v10.693h-5.58V14.565c1.71.767 3.831.8 5.58 0Zm63.264-3.583c.806 0 1.498.19 2.079.57v5.13c-.581-.397-1.331-.594-2.261-.594-1.218 0-2.158.384-2.811 1.15-.655.767-.982 1.961-.982 3.576v4.37h-5.596V11.29h5.482v4.417c.304-1.615.797-2.805 1.475-3.575.676-.767 1.55-1.15 2.614-1.15ZM64.669 8.56c2.147 0 3.962.35 5.45 1.045 1.485.696 2.598 1.666 3.335 2.907.737 1.242 1.11 2.663 1.11 4.265 0 1.567-.385 2.989-1.156 4.26-.77 1.277-1.942 2.284-3.517 3.027-1.576.743-3.529 1.116-5.862 1.116h-8.27V8.56h8.91Zm-50.81 5.305c-2.086 0-3.73 1.951-3.73 4.323 0 2.371 1.68 4.318 3.73 4.318 2.085 0 3.733-1.947 3.73-4.318.035-2.375-1.645-4.323-3.73-4.323Zm13.784 0c-2.086 0-3.73 1.951-3.73 4.323 0 2.371 1.68 4.318 3.73 4.318 2.085 0 3.73-1.947 3.73-4.318.035-2.375-1.645-4.323-3.73-4.323Zm97.335 1.182c-.976 0-1.74.281-2.298.845-.554.563-.832 1.316-.832 2.266s.277 1.713.832 2.29c.555.577 1.321.868 2.298.868.958-.003 1.716-.291 2.271-.868.555-.577.835-1.34.835-2.29s-.277-1.707-.835-2.267c-.555-.563-1.313-.844-2.271-.844Zm32.346.071c-.943 0-1.697.281-2.261.845-.565.563-.846 1.292-.846 2.195 0 .902.281 1.638.846 2.208.564.57 1.308.855 2.238.855.943-.003 1.7-.291 2.272-.868.571-.577.855-1.327.855-2.243 0-.885-.278-1.608-.832-2.161-.556-.553-1.316-.831-2.272-.831Zm-93.063-2.33h-2.787v8.169h2.464c1.446 0 2.559-.377 3.335-1.127.777-.753 1.166-1.777 1.166-3.077 0-1.204-.347-2.164-1.038-2.883-.692-.72-1.74-1.083-3.14-1.083ZM79.28 7.56c1.54 0 2.79 1.166 2.79 2.605s-1.25 2.606-2.79 2.606c-1.542 0-2.79-1.167-2.79-2.606 0-1.439 1.248-2.605 2.79-2.605Z"/></g><defs><clipPath id="a"><path fill="#fff" d="M.005.22h166v33h-166z"/></clipPath></defs></svg>