<?xml version="1.0" standalone="no"?>
<!DOCTYPE svg PUBLIC "-//W3C//DTD SVG 20010904//EN"
 "http://www.w3.org/TR/2001/REC-SVG-20010904/DTD/svg10.dtd">
<svg version="1.0" xmlns="http://www.w3.org/2000/svg"
 width="1125.000000pt" height="1125.000000pt" viewBox="0 0 1125.000000 1125.000000"
 preserveAspectRatio="xMidYMid meet">
<metadata>
Created by potrace 1.11, written by Peter Selinger 2001-2013
</metadata>
<g transform="translate(0.000000,1125.000000) scale(0.100000,-0.100000)"
fill="#000000" stroke="none">
<path d="M5638 8103 c-29 -3 -37 -9 -40 -26 -2 -13 -11 -23 -24 -25 -18 -3
-22 -12 -28 -64 -8 -80 -8 -3146 0 -3226 6 -52 10 -61 28 -64 13 -2 22 -12 24
-24 2 -17 12 -22 53 -27 27 -3 71 -3 98 0 41 5 51 10 53 27 2 12 11 22 24 24
18 3 22 12 28 64 8 80 8 3146 0 3226 -6 52 -10 61 -28 64 -13 2 -22 12 -24 26
-2 13 -10 22 -21 22 -10 0 -38 2 -62 4 -24 2 -61 2 -81 -1z"/>
<path d="M8303 7203 c-44 -3 -53 -7 -53 -23 0 -14 -10 -20 -50 -25 -31 -4 -50
-12 -50 -20 0 -14 -50 -35 -82 -35 -10 0 -21 -7 -24 -15 -4 -8 -14 -15 -24
-15 -11 0 -22 -4 -25 -10 -3 -5 -18 -10 -32 -10 -14 0 -38 -11 -55 -25 -20
-17 -42 -25 -69 -25 -32 0 -39 -3 -39 -20 0 -16 -9 -21 -50 -26 -30 -4 -50
-12 -50 -19 0 -14 -50 -35 -81 -35 -10 0 -22 -6 -26 -12 -13 -21 -51 -38 -83
-38 -16 0 -30 -4 -30 -10 0 -15 -56 -40 -90 -40 -23 0 -33 -5 -37 -19 -5 -20
-30 -31 -74 -31 -18 0 -28 -6 -32 -19 -3 -14 -17 -21 -51 -26 -25 -4 -46 -11
-46 -16 0 -13 -56 -39 -84 -39 -14 0 -29 -6 -33 -13 -11 -18 -59 -37 -93 -37
-20 0 -31 -6 -35 -20 -6 -19 -22 -26 -75 -32 -17 -2 -26 -10 -28 -25 -2 -14
-11 -23 -25 -25 -19 -3 -23 -11 -29 -63 -3 -34 -3 -85 0 -115 6 -44 12 -57 30
-65 12 -5 22 -13 22 -17 0 -15 33 -38 55 -38 13 0 36 -11 51 -25 15 -14 39
-25 55 -25 15 0 31 -4 34 -10 3 -5 14 -10 25 -10 10 0 20 -7 24 -15 3 -8 14
-15 24 -15 32 0 82 -21 82 -35 0 -7 19 -16 46 -20 34 -5 48 -12 51 -26 4 -14
14 -19 43 -19 36 0 70 -20 70 -41 0 -5 13 -9 30 -9 34 0 81 -19 93 -37 4 -7
19 -13 33 -13 28 0 84 -26 84 -39 0 -5 21 -12 46 -16 33 -5 48 -12 51 -25 3
-13 18 -19 53 -24 36 -5 49 -11 53 -26 4 -15 14 -20 40 -20 23 0 46 -9 65 -25
17 -14 39 -25 50 -25 27 0 75 -21 85 -37 4 -7 16 -13 26 -13 31 0 81 -21 81
-35 0 -7 20 -15 50 -19 40 -5 50 -11 50 -25 0 -16 10 -19 63 -23 34 -3 90 -3
125 0 57 4 62 7 62 28 0 16 7 24 23 26 18 2 23 11 29 53 3 28 4 76 1 107 -4
46 -11 62 -34 82 -16 14 -33 26 -38 26 -5 0 -11 6 -14 13 -2 6 -25 18 -50 25
-25 8 -48 20 -51 28 -3 8 -17 14 -31 14 -29 0 -85 26 -85 39 0 5 -21 12 -46
16 -34 5 -48 12 -51 26 -4 13 -14 19 -32 19 -44 0 -69 11 -74 31 -4 14 -14 19
-40 19 -23 0 -46 9 -65 25 -17 14 -39 25 -50 25 -27 0 -75 21 -85 37 -4 7 -16
13 -26 13 -31 0 -81 21 -81 35 0 7 -20 15 -50 19 -41 5 -50 10 -50 26 0 17 -7
20 -40 20 -28 0 -47 7 -62 22 -12 12 -38 24 -57 28 -27 4 -36 10 -36 25 0 15
8 21 30 23 16 2 42 15 58 28 18 15 41 24 64 24 26 0 36 5 40 20 4 15 17 21 53
26 35 5 50 11 53 24 3 13 18 20 51 25 25 4 46 11 46 15 0 11 59 40 81 40 10 0
35 11 55 25 22 15 51 25 71 25 26 0 36 5 40 19 5 20 30 31 74 31 18 0 28 6 32
19 3 14 17 21 51 26 27 4 46 13 46 20 0 15 51 35 87 35 13 0 26 6 29 14 3 7
24 19 47 27 23 7 51 21 62 31 11 10 32 28 46 41 30 27 41 89 31 177 -6 47 -10
55 -29 58 -15 2 -23 10 -23 23 0 11 -6 21 -12 24 -23 7 -132 12 -185 8z"/>
<path d="M2948 6008 c-33 -7 -48 -16 -51 -30 -3 -11 -14 -22 -25 -25 -30 -8
-44 -97 -32 -203 5 -47 10 -88 10 -92 0 -5 6 -8 14 -8 10 0 18 -22 27 -75 7
-47 16 -75 24 -75 7 0 16 -20 20 -46 7 -51 24 -94 36 -94 4 0 13 -25 20 -55 7
-33 17 -55 26 -55 7 0 13 -8 13 -19 0 -24 28 -91 38 -91 4 0 14 -20 21 -45 7
-25 19 -49 25 -53 7 -4 18 -26 26 -49 7 -24 18 -43 25 -43 11 0 35 -55 35 -82
0 -9 9 -18 20 -21 12 -3 20 -14 20 -25 0 -12 8 -27 19 -34 10 -7 24 -30 32
-50 7 -21 19 -38 26 -38 7 0 15 -11 19 -25 3 -14 14 -31 23 -38 20 -15 41 -52
41 -72 0 -8 7 -15 15 -15 8 0 20 -10 26 -22 7 -13 20 -29 31 -36 10 -7 18 -20
18 -27 0 -8 9 -20 20 -27 11 -7 20 -17 20 -21 0 -12 27 -37 39 -37 6 0 11 -7
11 -15 0 -8 5 -15 10 -15 6 0 10 -9 10 -20 0 -13 10 -24 25 -30 15 -6 25 -17
25 -29 0 -10 9 -21 21 -24 11 -3 23 -14 26 -25 3 -11 14 -22 25 -25 11 -3 22
-14 25 -25 3 -11 14 -22 25 -25 11 -3 22 -15 25 -26 3 -11 15 -21 27 -23 13
-2 22 -11 24 -25 2 -15 10 -23 23 -23 12 0 23 -10 29 -25 6 -15 17 -25 30 -25
11 0 20 -4 20 -10 0 -5 7 -10 15 -10 8 0 15 -6 15 -14 0 -7 14 -19 30 -26 17
-7 30 -19 30 -27 0 -8 14 -19 30 -24 17 -6 30 -17 30 -24 0 -7 11 -16 25 -19
14 -4 25 -13 25 -22 0 -8 8 -17 18 -20 48 -17 72 -30 72 -40 0 -7 14 -17 30
-23 17 -5 30 -17 30 -25 0 -10 9 -16 25 -16 14 0 25 -4 25 -10 0 -5 9 -10 20
-10 11 0 20 -7 20 -15 0 -8 12 -18 28 -21 15 -4 36 -15 47 -25 12 -10 35 -24
53 -30 18 -6 32 -17 32 -25 0 -8 8 -14 19 -14 32 0 81 -22 81 -36 0 -8 8 -14
19 -14 32 0 81 -22 81 -36 0 -8 8 -14 19 -14 31 0 81 -21 81 -34 0 -8 27 -18
69 -25 40 -7 72 -18 75 -26 3 -8 22 -17 43 -20 21 -4 50 -15 64 -25 14 -10 61
-23 104 -30 44 -7 84 -18 90 -25 5 -8 46 -19 90 -26 44 -7 85 -18 90 -25 6 -6
61 -17 125 -24 69 -7 121 -18 131 -26 23 -21 508 -41 600 -24 53 9 68 16 72
31 3 11 14 23 25 26 31 8 46 103 31 187 -10 53 -16 66 -31 66 -10 0 -23 11
-28 24 -11 31 -32 35 -235 43 -108 4 -177 11 -190 19 -11 6 -67 15 -125 18
-157 10 -200 16 -200 30 0 9 -31 16 -95 23 -65 7 -100 15 -108 26 -8 9 -44 19
-99 27 -61 8 -88 16 -88 25 0 9 -18 16 -46 21 -25 3 -53 15 -62 24 -9 10 -46
24 -80 31 -35 6 -66 18 -69 25 -2 7 -27 18 -54 24 -30 7 -49 17 -49 26 0 8 -6
14 -12 14 -31 0 -88 22 -88 33 0 7 -20 19 -45 26 -25 7 -45 19 -45 26 0 7 -20
18 -45 25 -25 7 -45 18 -45 26 0 7 -16 18 -35 24 -19 6 -35 18 -35 26 0 8 -6
14 -13 14 -22 0 -67 24 -67 37 0 6 -16 17 -35 23 -19 6 -35 17 -35 25 0 7 -11
16 -24 19 -13 3 -26 15 -29 26 -3 12 -13 20 -26 20 -12 0 -21 5 -21 10 0 6 -7
10 -15 10 -8 0 -15 6 -15 14 0 7 -13 19 -30 26 -16 7 -30 19 -30 27 0 7 -8 16
-17 20 -10 3 -42 30 -72 60 -29 29 -58 53 -62 53 -5 0 -9 6 -9 14 0 7 -9 16
-21 19 -11 3 -23 15 -26 26 -3 12 -12 21 -19 21 -8 0 -14 4 -14 9 0 5 -13 22
-30 38 -16 15 -30 34 -30 41 0 7 -11 17 -25 22 -14 5 -25 16 -25 25 0 8 -9 20
-20 27 -11 7 -20 16 -20 21 0 4 -14 22 -30 40 -17 18 -33 42 -36 55 -4 12 -12
22 -20 22 -7 0 -16 11 -20 25 -3 14 -15 30 -25 36 -11 5 -19 16 -19 24 0 8 -4
15 -10 15 -5 0 -10 11 -10 24 0 15 -7 26 -20 29 -12 3 -20 14 -20 25 0 12 -8
27 -19 34 -10 7 -24 30 -32 51 -7 20 -18 37 -25 37 -13 0 -34 51 -34 81 0 11
-6 19 -14 19 -14 0 -36 49 -36 81 0 11 -6 19 -14 19 -14 0 -36 49 -36 81 0 11
-7 19 -15 19 -8 0 -17 11 -20 25 -3 14 -8 37 -11 52 -3 15 -12 32 -20 37 -8 6
-20 39 -26 74 -6 34 -17 62 -23 62 -7 0 -17 31 -25 74 -7 41 -18 77 -25 80 -7
2 -19 36 -25 75 -11 59 -16 70 -34 73 -12 2 -22 12 -24 24 -2 17 -14 23 -66
32 -71 13 -73 13 -138 0z"/>
</g>
</svg>
